# xmcd
#
# Track frame offsets:
#	150
#	12934
#	22848
#	36433
#	53482
#	68413
#	82309
#	92924
#	101416
#	110335
#	120375
#	132745
#	140945
#	154284
#
# Disc length: 2184 seconds
#
# Revision: 2
# Processed by: cddbd v1.4PL0 Copyright (c) Steve Scherf et al.
# Submitted via: EZCDDA 4.3.2
#
DISCID=bc08860e
DTITLE=Willie Nelson - One Step Beyond
DYEAR=1900
DGENRE=
TTITLE0=I Just Don't Understand
TTITLE1=I Didn't Sleep A Wink
TTITLE2=Undo The Right
TTITLE3=I Let My Mind Wander
TTITLE4=And So Will You My Love
TTITLE5=Home Is Where You're Happy
TTITLE6=I Feel Sorry For Him
TTITLE7=Slow Down Old World
TTITLE8=Why Are You Picking On Me
TTITLE9=Broken Promises
TTITLE10=I Can't Find The Time
TTITLE11=Things To Remember
TTITLE12=You'll Always Have Someone
TTITLE13=One Step Beyond
EXTD=
EXTT0=
EXTT1=
EXTT2=
EXTT3=
EXTT4=
EXTT5=
EXTT6=
EXTT7=
EXTT8=
EXTT9=
EXTT10=
EXTT11=
EXTT12=
EXTT13=
PLAYORDER=
